<svg xmlns:dc="http://purl.org/dc/elements/1.1/" xmlns:cc="http://creativecommons.org/ns#" xmlns:rdf="http://www.w3.org/1999/02/22-rdf-syntax-ns#" xmlns:svg="http://www.w3.org/2000/svg" xmlns="http://www.w3.org/2000/svg" xmlns:sodipodi="http://sodipodi.sourceforge.net/DTD/sodipodi-0.dtd" xmlns:inkscape="http://www.inkscape.org/namespaces/inkscape" version="1.1" x="0px" y="0px" viewBox="0 0 100 125"><g transform="translate(0,-952.36218)"><path style="text-indent:0;text-transform:none;direction:ltr;block-progression:tb;baseline-shift:baseline;color:#000000;enable-background:accumulate;" d="m 49.96875,960.36215 c -10.96947,0 -19.96875,8.5747 -19.96875,19.75 0,2.70575 0.65863,6.17486 1.5625,8.5625 5.51671,11.50485 11.08136,23.02565 16.625,34.53125 0.3198,0.6852 1.05635,1.1563 1.8125,1.1563 0.75615,0 1.4927,-0.4711 1.8125,-1.1563 5.47702,-11.5363 11.19461,-22.9868 16.625,-34.53125 0.91063,-2.3931 1.5625,-5.85836 1.5625,-8.5625 0,-11.18122 -9.06168,-19.75 -20.03125,-19.75 z m 0,4 c 8.91458,0 16.03125,6.69882 16.03125,15.75 0,1.92786 -0.67286,5.35263 -1.3125,7.0625 C 59.83901,997.36931 54.90267,1007.5563 50,1017.7372 45.27119,1007.4789 39.93088,997.46701 35.3125,987.17465 34.67455,985.46078 34,982.03643 34,980.11215 c 0,-9.0571 7.0543,-15.75 15.96875,-15.75 z m 0.03125,5 c -6.05137,0 -11,4.94857 -11,11 0,6.05135 4.94861,11 11,11 6.05149,0 11,-4.94869 11,-11 0,-6.05139 -4.94854,-11 -11,-11 z m 0,4 c 3.88967,0 7,3.11039 7,7 0,3.88949 -3.11036,7 -7,7 -3.88949,0 -7,-3.11055 -7,-7 0,-3.88957 3.11048,-7 7,-7 z m -37,26.99995 c -1.16216,0 -1.97542,1.0991 -2,2 l 0,40.0001 c 10e-5,1.0472 0.95283,1.9999 2,2 l 74,0 c 1.04717,-10e-5 1.9999,-0.9528 2,-2 l 0,-40.0001 c -1e-4,-1.0471 -0.95283,-1.9999 -2,-2 l -21.96875,0 -1.9375,4 21.90625,0 0,8.0001 -25.4375,0 -0.1875,-0.25 -1.9375,4 19.40625,24.25 -29.875,0 -12.4375,-15.5625 8.6875,-7.3438 -1.78125,-3.6875 -9.40625,7.9375 -13.875,-17.3438 18.75,0 -1.9375,-4 -21.96875,0 z m 2,6.4375 26.84375,33.5626 -26.84375,0 0,-33.5626 z m 47.75,9.5626 22.25,0 0,10 -14.25,0 -8,-10 z m 11.21875,14 11.03125,0 0,10 -3.03125,0 -8,-10 z" fill="#000000" fill-opacity="1" stroke="none" marker="none" visibility="visible" display="inline" overflow="visible"/></g><text x="0" y="115" fill="#000000" font-size="5px" font-weight="bold" font-family="'Helvetica Neue', Helvetica, Arial-Unicode, Arial, Sans-serif">Created by Numero Uno</text><text x="0" y="120" fill="#000000" font-size="5px" font-weight="bold" font-family="'Helvetica Neue', Helvetica, Arial-Unicode, Arial, Sans-serif">from the Noun Project</text></svg>