<svg xmlns="http://www.w3.org/2000/svg" xmlns:xlink="http://www.w3.org/1999/xlink" version="1.1" x="0px" y="0px" viewBox="0 0 100 125" style="enable-background:new 0 0 100 100;" xml:space="preserve"><path d="M71.4,22H28.6c-0.8,0-1.5,0.7-1.5,1.5v47.8c0,0.8,0.7,1.5,1.5,1.5h1.7v1.1c0,2.2,1.8,4.1,4.1,4.1h7.8c2.2,0,4.1-1.8,4.1-4.1  v-1.1h7.5v1.1c0,2.2,1.8,4.1,4.1,4.1h7.8c2.2,0,4.1-1.8,4.1-4.1v-1.1h1.7c0.8,0,1.5-0.7,1.5-1.5V23.5C72.9,22.7,72.3,22,71.4,22z   M69.9,25v23.5H30.1V25H69.9z M43.2,73.9c0,0.6-0.5,1.1-1.1,1.1h-7.8c-0.6,0-1.1-0.5-1.1-1.1v-1.1h10V73.9z M66.7,73.9  c0,0.6-0.5,1.1-1.1,1.1h-7.8c-0.6,0-1.1-0.5-1.1-1.1v-1.1h10V73.9z M30.1,69.8V51.5h39.9v18.3H30.1z M38.5,55.6  c-3.6,0-6.5,2.9-6.5,6.5s2.9,6.5,6.5,6.5c3.6,0,6.5-2.9,6.5-6.5S42.1,55.6,38.5,55.6z M38.5,65.6c-1.9,0-3.5-1.6-3.5-3.5  s1.6-3.5,3.5-3.5c1.9,0,3.5,1.6,3.5,3.5S40.5,65.6,38.5,65.6z M61.5,55.6c-3.6,0-6.5,2.9-6.5,6.5s2.9,6.5,6.5,6.5s6.5-2.9,6.5-6.5  S65,55.6,61.5,55.6z M61.5,65.6c-1.9,0-3.5-1.6-3.5-3.5s1.6-3.5,3.5-3.5s3.5,1.6,3.5,3.5S63.4,65.6,61.5,65.6z M21.5,28.2h3.6v3H23  v10.1h2.1v3h-3.6c-0.8,0-1.5-0.7-1.5-1.5V29.7C20,28.9,20.7,28.2,21.5,28.2z M80,29.7v13.1c0,0.8-0.7,1.5-1.5,1.5h-3.6v-3H77V31.2  h-2.1v-3h3.6C79.3,28.2,80,28.9,80,29.7z"/><text x="0" y="115" fill="#ffffff" font-size="5px" font-weight="bold" font-family="'Helvetica Neue', Helvetica, Arial-Unicode, Arial, Sans-serif">Created by Mello</text><text x="0" y="120" fill="#ffffff" font-size="5px" font-weight="bold" font-family="'Helvetica Neue', Helvetica, Arial-Unicode, Arial, Sans-serif">from the Noun Project</text></svg>