<svg xmlns="http://www.w3.org/2000/svg" xmlns:xlink="http://www.w3.org/1999/xlink" version="1.1" x="0px" y="0px" viewBox="0 0 90 112.5" enable-background="new 0 0 90 90" xml:space="preserve"><path d="M76.562,34.922C72.211,21.274,59.45,11.872,45,11.872s-27.212,9.402-31.561,23.05C8.04,35.107,3.704,39.557,3.704,45  s4.336,9.894,9.735,10.078C17.788,68.726,30.55,78.128,45,78.128s27.211-9.402,31.562-23.05c5.398-0.184,9.734-4.634,9.734-10.078  S81.96,35.107,76.562,34.922z M60.88,20.39c5.758,3.717,10.178,9.424,12.208,16.299c-2.079,1.344-4.522,2.076-7.018,2.076  c-3.65,0-7.044-1.504-9.485-4.159c1.582-1.646,2.819-3.619,3.488-5.875C60.875,26.023,61.145,23.192,60.88,20.39z M40.872,16.833  c3.83,0,6.945,3.115,6.945,6.944c0,2.911-2.367,5.278-5.277,5.278c-2.174,0-3.944-1.769-3.944-3.944  c0-0.769-0.624-1.392-1.392-1.392c-0.77,0-1.393,0.624-1.393,1.392c0,3.709,3.019,6.729,6.729,6.729  c4.445,0,8.062-3.616,8.062-8.062c0-3.337-1.689-6.288-4.258-8.04c4.064,0.186,7.953,1.209,11.471,2.924  c0.617,3.087,0.48,6.269-0.412,9.279c-1.75,5.902-8.59,9.556-13.925,9.556c-6.415,0-11.634-5.219-11.634-11.635  C31.843,20.883,35.893,16.833,40.872,16.833z M31.114,19.212c-1.296,1.895-2.056,4.186-2.056,6.65c0,3.642,1.359,6.97,3.594,9.51  c-2.386,2.193-5.459,3.393-8.723,3.393c-2.496,0-4.938-0.731-7.017-2.076C19.17,29.041,24.39,22.838,31.114,19.212z M76.212,51.251  c-0.238,0-0.498-0.02-0.816-0.062l-1.665-0.217l-0.435,1.622C69.876,65.372,58.239,74.296,45,74.296s-24.875-8.924-28.295-21.701  l-0.435-1.622l-1.666,0.217c-0.318,0.042-0.578,0.062-0.816,0.062c-3.447,0-6.251-2.805-6.251-6.251  c0-3.447,2.805-6.251,6.251-6.251c0.238,0,0.498,0.019,0.816,0.061l0.581,0.076c2.573,1.725,5.625,2.664,8.744,2.664  c4.037,0,7.834-1.515,10.756-4.271c2.436,1.88,5.484,3.002,8.792,3.002c3.633,0,7.738-1.361,11.021-3.832  c2.971,3.254,7.114,5.1,11.572,5.1c3.12,0,6.171-0.939,8.744-2.664l0.581-0.076c0.318-0.042,0.578-0.061,0.816-0.061  c3.447,0,6.251,2.804,6.251,6.251C82.463,48.447,79.659,51.251,76.212,51.251z M53.446,55.706H36.554  c-0.823,0-1.49,0.668-1.49,1.491c0,5.478,4.458,9.936,9.937,9.936s9.937-4.458,9.937-9.936  C54.937,56.374,54.27,55.706,53.446,55.706z M38.239,47.771c0,0.823,0.667,1.491,1.491,1.491c0.824,0,1.491-0.667,1.491-1.491  c0-2.903-2.361-5.264-5.264-5.264s-5.264,2.361-5.264,5.264c0,0.823,0.667,1.491,1.49,1.491c0.824,0,1.491-0.667,1.491-1.491  c0-1.259,1.024-2.283,2.283-2.283C37.215,45.488,38.239,46.512,38.239,47.771z M54.044,42.507c-2.903,0-5.265,2.361-5.265,5.264  c0,0.823,0.667,1.491,1.491,1.491c0.823,0,1.491-0.667,1.491-1.491c0-1.259,1.024-2.283,2.283-2.283s2.283,1.024,2.283,2.283  c0,0.823,0.667,1.491,1.491,1.491c0.823,0,1.491-0.667,1.491-1.491C59.309,44.868,56.947,42.507,54.044,42.507z M13.827,43.836  c0.769,0,1.392-0.624,1.392-1.393c0-0.769-0.623-1.393-1.392-1.393c-2.178,0-3.949,1.771-3.949,3.95  c0,2.177,1.771,3.949,3.949,3.949c0.769,0,1.392-0.624,1.392-1.393c0-0.769-0.623-1.393-1.392-1.393  c-0.642,0-1.165-0.522-1.165-1.164C12.663,44.358,13.185,43.836,13.827,43.836z M76.173,41.051c-0.77,0-1.392,0.624-1.392,1.393  c0,0.769,0.622,1.393,1.392,1.393c0.643,0,1.164,0.522,1.164,1.165c0,0.642-0.521,1.164-1.164,1.164  c-0.77,0-1.392,0.624-1.392,1.393c0,0.769,0.622,1.393,1.392,1.393c2.178,0,3.949-1.772,3.949-3.949  C80.122,42.822,78.351,41.051,76.173,41.051z"/><text x="0" y="105" fill="#000000" font-size="5px" font-weight="bold" font-family="'Helvetica Neue', Helvetica, Arial-Unicode, Arial, Sans-serif">Created by julian roman</text><text x="0" y="110" fill="#000000" font-size="5px" font-weight="bold" font-family="'Helvetica Neue', Helvetica, Arial-Unicode, Arial, Sans-serif">from the Noun Project</text></svg>