<svg xmlns="http://www.w3.org/2000/svg" xmlns:xlink="http://www.w3.org/1999/xlink" version="1.1" x="0px" y="0px" viewBox="0 0 100 125" style="enable-background:new 0 0 100 100;" xml:space="preserve"><style type="text/css">
	.st0{fill:none;stroke:#000000;stroke-width:3;stroke-linecap:round;stroke-linejoin:round;stroke-miterlimit:10;}
	.st1{fill:none;stroke:#000000;stroke-width:2;stroke-linecap:round;stroke-linejoin:round;stroke-miterlimit:10;}
	.st2{fill:none;stroke:#000000;stroke-width:4;stroke-linecap:round;stroke-linejoin:round;stroke-miterlimit:10;}
	.st3{fill:none;stroke:#000000;stroke-linecap:round;stroke-linejoin:round;stroke-miterlimit:10;}
</style><g><path d="M53.1,19.7c-0.4,0-0.8,0.1-1.1,0.4c-0.3,0.3-0.5,0.7-0.5,1.1v21.4H28.1c-1.9-2.4-4.1-5-6.1-6.5c-0.1-0.1-0.3-0.2-0.4-0.3   c-1-0.7-1.9-1.1-2.7-1c-1.6,0.1-3.7,0.9-4.7,2.4c-0.6,1-0.8,2.3-0.3,3.5c0.6,1.7,2.7,2.5,4.9,1.8c1.3-0.4,2.5-1.2,3.1-2.4   c1.1,1.1,2.3,2.4,3.4,3.9c0,0,0,0.1,0,0.1c0,12.1,12.4,22,27.5,22s27.5-9.9,27.5-22C80.5,22.4,53.4,19.7,53.1,19.7z M18.4,39.5   c-0.8,0.4-1.5,0.2-1.6,0.1c-0.2-0.4-0.1-0.7,0-0.8c0.3-0.5,1.3-1,2.3-1.1c0.1,0,0.2,0.1,0.4,0.2C19.5,38.8,18.9,39.3,18.4,39.5z    M54.5,22.9c5.3,0.9,21.9,4.9,23,19.6h-23V22.9z M53,63.1c-12.9,0-23.5-7.7-24.5-17.5h48.9C76.5,55.3,65.9,63.1,53,63.1z"/><path d="M64.6,66.1c-4,0-7.3,3.3-7.3,7.3s3.3,7.3,7.3,7.3s7.3-3.3,7.3-7.3S68.6,66.1,64.6,66.1z M64.6,77.6c-2.3,0-4.3-1.9-4.3-4.3   s1.9-4.3,4.3-4.3c2.3,0,4.3,1.9,4.3,4.3S67,77.6,64.6,77.6z"/><path d="M40.4,66.1c-4,0-7.3,3.3-7.3,7.3s3.3,7.3,7.3,7.3s7.3-3.3,7.3-7.3S44.4,66.1,40.4,66.1z M40.4,77.6c-2.3,0-4.3-1.9-4.3-4.3   s1.9-4.3,4.3-4.3s4.3,1.9,4.3,4.3S42.7,77.6,40.4,77.6z"/><circle cx="40.4" cy="73.4" r="1.8"/><circle cx="64.6" cy="73.4" r="1.8"/></g><text x="0" y="115" fill="#000000" font-size="5px" font-weight="bold" font-family="'Helvetica Neue', Helvetica, Arial-Unicode, Arial, Sans-serif">Created by Muhammad Anis</text><text x="0" y="120" fill="#000000" font-size="5px" font-weight="bold" font-family="'Helvetica Neue', Helvetica, Arial-Unicode, Arial, Sans-serif">from the Noun Project</text></svg>