<svg xmlns="http://www.w3.org/2000/svg" xmlns:xlink="http://www.w3.org/1999/xlink" version="1.1" x="0px" y="0px" viewBox="0 0 100 125" style="enable-background:new 0 0 100 100;" xml:space="preserve"><style type="text/css">
	.st0{fill:none;stroke:#000000;stroke-width:2;stroke-linecap:round;stroke-linejoin:round;stroke-miterlimit:10;}
	.st1{fill:none;stroke:#000000;stroke-width:2;stroke-miterlimit:10;}
	.st2{fill:none;stroke:#000000;stroke-width:2;stroke-linecap:round;stroke-miterlimit:10;}
</style><path d="M44.525,63.331v14.395c0,0.553,0.448,1,1,1h8.309c0.552,0,1-0.447,1-1V63.331c0-0.553-0.448-1-1-1h-8.309  C44.972,62.331,44.525,62.778,44.525,63.331z M52.834,76.726h-2.196V64.331h2.196V76.726z M46.525,64.331h2.113v12.395h-2.113  V64.331z"/><path d="M30.333,63.331v14.395c0,0.553,0.448,1,1,1h8.309c0.552,0,1-0.447,1-1V63.331c0-0.553-0.448-1-1-1h-8.309  C30.781,62.331,30.333,62.778,30.333,63.331z M38.642,76.726h-2.195V64.331h2.195V76.726z M32.333,64.331h2.113v12.395h-2.113  V64.331z"/><path d="M44.525,39.276v14.395c0,0.553,0.448,1,1,1h8.309c0.552,0,1-0.447,1-1V39.276c0-0.553-0.448-1-1-1h-8.309  C44.972,38.276,44.525,38.724,44.525,39.276z M52.834,52.671h-2.196V40.276h2.196V52.671z M46.525,40.276h2.113v12.395h-2.113  V40.276z"/><path d="M59.242,39.276v14.395c0,0.553,0.448,1,1,1h8.309c0.552,0,1-0.447,1-1V39.276c0-0.553-0.448-1-1-1h-8.309  C59.69,38.276,59.242,38.724,59.242,39.276z M67.551,52.671h-2.195V40.276h2.195V52.671z M61.242,40.276h2.113v12.395h-2.113V40.276  z"/><path d="M30.186,39.276v14.395c0,0.553,0.448,1,1,1h8.309c0.552,0,1-0.447,1-1V39.276c0-0.553-0.448-1-1-1h-8.309  C30.634,38.276,30.186,38.724,30.186,39.276z M38.494,52.671h-2.195V40.276h2.195V52.671z M32.186,40.276h2.113v12.395h-2.113  V40.276z"/><path d="M23.452,24.636v63.166c0,0.553,0.448,1,1,1H75.11c0.552,0,1-0.447,1-1V24.636c0-0.058-0.005-0.116-0.015-0.173l-2-11.385  c-0.084-0.479-0.5-0.827-0.985-0.827H53.913l-3.425-3.425c-0.391-0.391-1.023-0.391-1.414,0l-3.425,3.425H26.452  c-0.485,0-0.901,0.349-0.985,0.827l-2,11.385C23.457,24.52,23.452,24.578,23.452,24.636z M56.32,17.486v8.665H43.241v-8.665  l3.527-3.527c0.001-0.001,0.002-0.002,0.003-0.003l3.01-3.009L56.32,17.486z M74.11,26.151H58.32v-9.079  c0-0.266-0.105-0.52-0.293-0.707l-2.114-2.114H72.27l1.84,10.472V26.151z M58.728,64.331h9.769v22.471h-9.769V64.331z   M25.452,31.651H74.11v55.15h-3.612V63.331c0-0.553-0.448-1-1-1H57.728c-0.552,0-1,0.447-1,1v23.471H25.452V31.651z M25.452,28.151  H74.11v1.5H25.452V28.151z M25.452,24.723l1.84-10.472h16.357l-2.114,2.114c-0.188,0.188-0.293,0.441-0.293,0.707v9.079h-15.79  V24.723z"/><g><circle cx="65.892" cy="77.726" r="0.94"/></g><text x="0" y="115" fill="#000000" font-size="5px" font-weight="bold" font-family="'Helvetica Neue', Helvetica, Arial-Unicode, Arial, Sans-serif">Created by Made by Made</text><text x="0" y="120" fill="#000000" font-size="5px" font-weight="bold" font-family="'Helvetica Neue', Helvetica, Arial-Unicode, Arial, Sans-serif">from the Noun Project</text></svg>