<svg xmlns="http://www.w3.org/2000/svg" xmlns:xlink="http://www.w3.org/1999/xlink" version="1.1" x="0px" y="0px" viewBox="0 0 100 125" style="enable-background:new 0 0 100 100;" xml:space="preserve"><style type="text/css">
	.st0{fill:none;stroke:#000000;stroke-width:2;stroke-linecap:round;stroke-linejoin:round;stroke-miterlimit:10;}
</style><path d="M22.1,52.2v15.2c0,0.6,0.4,1,1,1s1-0.4,1-1V52.2c6.8-0.5,12.1-6.1,12.1-13c0-7.2-5.9-13.1-13.1-13.1S10.1,32,10.1,39.2  C10.1,46,15.4,51.6,22.1,52.2z M23.2,28.1c6.1,0,11.1,5,11.1,11.1c0,5.8-4.5,10.5-10.1,11v-6.8l4.6-5.3c0.4-0.4,0.3-1-0.1-1.4  c-0.4-0.4-1-0.3-1.4,0.1l-3.1,3.5v-8.2c0-0.6-0.4-1-1-1s-1,0.4-1,1v13.1c-1.6-2-3.8-4.8-3.8-4.8c-0.3-0.4-1-0.5-1.4-0.2  c-0.4,0.3-0.5,1-0.2,1.4c0.2,0.2,4.2,5.3,5.4,6.7c0,0,0,0,0.1,0v1.7c-5.6-0.5-10-5.3-10-11C12.1,33.1,17.1,28.1,23.2,28.1z"/><path d="M74.7,26.1c-1.3,0-2.5,0.2-3.7,0.5c-1.5-7.9-8.4-13.9-16.8-13.9c-9.4,0-17.1,7.7-17.1,17.1c0,9.1,7.1,16.5,16,17v20.5  c0,0.6,0.4,1,1,1s1-0.4,1-1V46.8c2.8-0.2,5.4-1,7.7-2.3c2,4.3,6.1,7.3,10.9,7.7v15.2c0,0.6,0.4,1,1,1s1-0.4,1-1V52.2  c6.8-0.5,12.1-6.1,12.1-13C87.7,32,81.9,26.1,74.7,26.1z M63.7,41.5c-2.4,1.9-5.3,3.1-8.6,3.3v-9.5l6.2-7.1c0.4-0.4,0.3-1-0.1-1.4  c-0.4-0.4-1-0.3-1.4,0.1l-4.7,5.4V20.5c0-0.6-0.4-1-1-1s-1,0.4-1,1v18.4c-2.2-2.7-5.7-7.1-5.7-7.1c-0.3-0.4-1-0.5-1.4-0.2  c-0.4,0.3-0.5,1-0.2,1.4c0.2,0.3,5.6,7.1,7.1,8.9c0,0.1,0.1,0.1,0.2,0.1v2.8c-7.8-0.6-14-7.1-14-15c0-8.3,6.8-15.1,15.1-15.1  c7.7,0,14.1,5.9,15,13.4c0,0.1,0,0.3,0,0.4c0,0.4,0.1,0.8,0.1,1.2c0,0,0,0,0,0c0,0,0,0,0,0c0,0.5,0,0.9-0.1,1.3c0,0.1,0,0.2,0,0.3  c0,0.4-0.1,0.8-0.2,1.2c0,0.1-0.1,0.2-0.1,0.4c-0.1,0.4-0.2,0.7-0.3,1c0,0.1-0.1,0.2-0.1,0.3c-0.1,0.4-0.3,0.7-0.4,1.1  c0,0.1-0.1,0.2-0.1,0.4c-0.2,0.4-0.3,0.7-0.5,1.1c0,0.1-0.1,0.2-0.1,0.2c-0.2,0.3-0.4,0.7-0.6,1c0,0.1-0.1,0.1-0.1,0.2  c-0.2,0.4-0.5,0.7-0.8,1c0,0.1-0.1,0.1-0.1,0.2c-0.6,0.7-1.2,1.3-1.9,1.9C63.8,41.4,63.7,41.4,63.7,41.5z M75.6,50.2v-6.8l4.6-5.3  c0.4-0.4,0.3-1-0.1-1.4c-0.4-0.4-1-0.3-1.4,0.1l-3.1,3.5v-8.2c0-0.6-0.4-1-1-1s-1,0.4-1,1v13.1c-1.6-2-3.8-4.8-3.8-4.8  c-0.3-0.4-1-0.5-1.4-0.2c-0.4,0.3-0.5,1-0.2,1.4c0.2,0.2,4.2,5.3,5.4,6.7c0,0,0,0,0.1,0v1.7c-4.1-0.4-7.6-3-9.2-6.8  c0.2-0.1,0.3-0.3,0.5-0.4c0,0,0.1-0.1,0.1-0.1c0.4-0.3,0.8-0.7,1.1-1c0,0,0.1-0.1,0.1-0.1c0.7-0.7,1.4-1.5,1.9-2.4  c0-0.1,0.1-0.1,0.1-0.2c0.3-0.4,0.5-0.8,0.7-1.2c0.1-0.1,0.1-0.2,0.2-0.3c0.2-0.4,0.4-0.8,0.6-1.3c0-0.1,0.1-0.2,0.1-0.2  c0.2-0.4,0.3-0.8,0.4-1.2c0-0.1,0.1-0.2,0.1-0.3c0.1-0.4,0.2-0.9,0.3-1.3c0-0.1,0.1-0.3,0.1-0.4c0.1-0.5,0.2-0.9,0.2-1.4  c0-0.1,0-0.2,0-0.3c0-0.5,0.1-1,0.1-1.5c0,0,0,0,0,0c0,0,0,0,0,0c0-0.4,0-0.7,0-1.1c1.1-0.4,2.3-0.6,3.5-0.6c6.1,0,11.1,5,11.1,11.1  C85.7,45,81.3,49.7,75.6,50.2z"/><path d="M86.7,73.5c-1.4,0-2.1-0.4-2.9-0.9c-0.9-0.5-1.9-1.1-3.9-1.1s-3,0.6-3.9,1.1c-0.8,0.5-1.5,0.9-2.9,0.9  c-1.4,0-2.1-0.4-2.9-0.9c-0.9-0.5-1.9-1.1-3.9-1.1c-2,0-3,0.6-3.9,1.1c-0.8,0.5-1.5,0.9-2.9,0.9c-1.4,0-2.1-0.4-2.9-0.9  c-0.9-0.5-1.9-1.1-3.9-1.1c-2,0-3,0.6-3.9,1.1c-0.8,0.5-1.5,0.9-2.9,0.9s-2.1-0.4-2.9-0.9C42,72.1,41,71.5,39,71.5s-3,0.6-3.9,1.1  c-0.8,0.5-1.5,0.9-2.9,0.9c-1.4,0-2.1-0.4-2.9-0.9c-0.9-0.5-1.9-1.1-3.9-1.1c-2,0-3,0.6-3.9,1.1c-0.8,0.5-1.5,0.9-2.9,0.9  s-2.1-0.4-2.9-0.9c-0.9-0.5-1.9-1.1-3.9-1.1c-0.6,0-1,0.4-1,1s0.4,1,1,1c1.4,0,2.1,0.4,2.9,0.9c0.9,0.5,1.9,1.1,3.9,1.1  s3-0.6,3.9-1.1c0.8-0.5,1.5-0.9,2.9-0.9c1.4,0,2.1,0.4,2.9,0.9c0.9,0.5,1.9,1.1,3.9,1.1c2,0,3-0.6,3.9-1.1c0.8-0.5,1.5-0.9,2.9-0.9  s2.1,0.4,2.9,0.9c0.9,0.5,1.9,1.1,3.9,1.1s3-0.6,3.9-1.1c0.8-0.5,1.5-0.9,2.9-0.9c1.4,0,2.1,0.4,2.9,0.9c0.9,0.5,1.9,1.1,3.9,1.1  c2,0,3-0.6,3.9-1.1c0.8-0.5,1.5-0.9,2.9-0.9c1.4,0,2.1,0.4,2.9,0.9c0.9,0.5,1.9,1.1,3.9,1.1c2,0,3-0.6,3.9-1.1  c0.8-0.5,1.5-0.9,2.9-0.9s2.1,0.4,2.9,0.9c0.9,0.5,1.9,1.1,3.9,1.1c0.6,0,1-0.4,1-1S87.3,73.5,86.7,73.5z"/><path d="M86.7,80.4c-1.4,0-2.1-0.4-2.9-0.9c-0.9-0.5-1.9-1.1-3.9-1.1s-3,0.6-3.9,1.1c-0.8,0.5-1.5,0.9-2.9,0.9  c-1.4,0-2.1-0.4-2.9-0.9c-0.9-0.5-1.9-1.1-3.9-1.1c-2,0-3,0.6-3.9,1.1c-0.8,0.5-1.5,0.9-2.9,0.9c-1.4,0-2.1-0.4-2.9-0.9  c-0.9-0.5-1.9-1.1-3.9-1.1c-2,0-3,0.6-3.9,1.1c-0.8,0.5-1.5,0.9-2.9,0.9s-2.1-0.4-2.9-0.9C42,79,41,78.4,39,78.4s-3,0.6-3.9,1.1  c-0.8,0.5-1.5,0.9-2.9,0.9c-1.4,0-2.1-0.4-2.9-0.9c-0.9-0.5-1.9-1.1-3.9-1.1c-2,0-3,0.6-3.9,1.1c-0.8,0.5-1.5,0.9-2.9,0.9  s-2.1-0.4-2.9-0.9c-0.9-0.5-1.9-1.1-3.9-1.1c-0.6,0-1,0.4-1,1s0.4,1,1,1c1.4,0,2.1,0.4,2.9,0.9c0.9,0.5,1.9,1.1,3.9,1.1  s3-0.6,3.9-1.1c0.8-0.5,1.5-0.9,2.9-0.9c1.4,0,2.1,0.4,2.9,0.9c0.9,0.5,1.9,1.1,3.9,1.1c2,0,3-0.6,3.9-1.1c0.8-0.5,1.5-0.9,2.9-0.9  s2.1,0.4,2.9,0.9c0.9,0.5,1.9,1.1,3.9,1.1s3-0.6,3.9-1.1c0.8-0.5,1.5-0.9,2.9-0.9c1.4,0,2.1,0.4,2.9,0.9c0.9,0.5,1.9,1.1,3.9,1.1  c2,0,3-0.6,3.9-1.1c0.8-0.5,1.5-0.9,2.9-0.9c1.4,0,2.1,0.4,2.9,0.9c0.9,0.5,1.9,1.1,3.9,1.1c2,0,3-0.6,3.9-1.1  c0.8-0.5,1.5-0.9,2.9-0.9s2.1,0.4,2.9,0.9c0.9,0.5,1.9,1.1,3.9,1.1c0.6,0,1-0.4,1-1S87.3,80.4,86.7,80.4z"/><path d="M86.7,87.2c-1.4,0-2.1-0.4-2.9-0.9c-0.9-0.5-1.9-1.1-3.9-1.1s-3,0.6-3.9,1.1c-0.8,0.5-1.5,0.9-2.9,0.9  c-1.4,0-2.1-0.4-2.9-0.9c-0.9-0.5-1.9-1.1-3.9-1.1c-2,0-3,0.6-3.9,1.1c-0.8,0.5-1.5,0.9-2.9,0.9c-1.4,0-2.1-0.4-2.9-0.9  c-0.9-0.5-1.9-1.1-3.9-1.1c-2,0-3,0.6-3.9,1.1c-0.8,0.5-1.5,0.9-2.9,0.9s-2.1-0.4-2.9-0.9C42,85.8,41,85.2,39,85.2s-3,0.6-3.9,1.1  c-0.8,0.5-1.5,0.9-2.9,0.9c-1.4,0-2.1-0.4-2.9-0.9c-0.9-0.5-1.9-1.1-3.9-1.1c-2,0-3,0.6-3.9,1.1c-0.8,0.5-1.5,0.9-2.9,0.9  s-2.1-0.4-2.9-0.9c-0.9-0.5-1.9-1.1-3.9-1.1c-0.6,0-1,0.4-1,1s0.4,1,1,1c1.4,0,2.1,0.4,2.9,0.9c0.9,0.5,1.9,1.1,3.9,1.1  s3-0.6,3.9-1.1c0.8-0.5,1.5-0.9,2.9-0.9c1.4,0,2.1,0.4,2.9,0.9c0.9,0.5,1.9,1.1,3.9,1.1c2,0,3-0.6,3.9-1.1c0.8-0.5,1.5-0.9,2.9-0.9  s2.1,0.4,2.9,0.9c0.9,0.5,1.9,1.1,3.9,1.1s3-0.6,3.9-1.1c0.8-0.5,1.5-0.9,2.9-0.9c1.4,0,2.1,0.4,2.9,0.9c0.9,0.5,1.9,1.1,3.9,1.1  c2,0,3-0.6,3.9-1.1c0.8-0.5,1.5-0.9,2.9-0.9c1.4,0,2.1,0.4,2.9,0.9c0.9,0.5,1.9,1.1,3.9,1.1c2,0,3-0.6,3.9-1.1  c0.8-0.5,1.5-0.9,2.9-0.9s2.1,0.4,2.9,0.9c0.9,0.5,1.9,1.1,3.9,1.1c0.6,0,1-0.4,1-1S87.3,87.2,86.7,87.2z"/><text x="0" y="115" fill="#000000" font-size="5px" font-weight="bold" font-family="'Helvetica Neue', Helvetica, Arial-Unicode, Arial, Sans-serif">Created by Made by Made</text><text x="0" y="120" fill="#000000" font-size="5px" font-weight="bold" font-family="'Helvetica Neue', Helvetica, Arial-Unicode, Arial, Sans-serif">from the Noun Project</text></svg>