<svg xmlns="http://www.w3.org/2000/svg" data-name="Home Automation" viewBox="0 0 60 75" x="0px" y="0px"><title>Home Automation - 090 - Gas Stats</title><path d="M39.07007,43.68994a16.44276,16.44276,0,0,1-13.8,15.23,8.64751,8.64751,0,0,0,5.97-8.09985A9.15582,9.15582,0,0,0,28.21,44.47c-.17993,2.29-2.02,5.99-4.91992,4.34009a10.45249,10.45249,0,0,0,1.88989-6V42.7A10.38485,10.38485,0,0,0,23.51,37.13a11.35845,11.35845,0,0,0-4.26-3.87,10.09781,10.09781,0,0,1,.49,2.81006c.01.12988.01.25989.01.3999a10.55939,10.55939,0,0,1-3.36,7.68994A11.59175,11.59175,0,0,0,13.96,47.1a8.22659,8.22659,0,0,0-.36987,6.6A8.86583,8.86583,0,0,0,19.28,59,16.83884,16.83884,0,0,1,5.97,48.42993a15.43942,15.43942,0,0,1,.71-12.38989A21.01683,21.01683,0,0,1,11.24,30.53,19.89258,19.89258,0,0,0,17.54,16.08c0-.25-.01-.5-.02-.74A18.75058,18.75058,0,0,0,17.21,12.55c-.12988-.77-.31995-1.54-.49-2.3a8.41332,8.41332,0,0,1,1.43005.74,16.54151,16.54151,0,0,1,1.52991,1.11C23.71,15.31006,26.64,19.64,29.36,24a13.48423,13.48423,0,0,0-1.03992,3A14.13384,14.13384,0,0,0,28,30,14.02488,14.02488,0,0,0,39.07007,43.68994Z" fill="none" stroke="#000" stroke-linecap="round" stroke-linejoin="round" stroke-width="2"/><path d="M56,30A14.01568,14.01568,0,0,1,42,44a14.13255,14.13255,0,0,1-2.92993-.31006A14.02488,14.02488,0,0,1,28,30a14.13384,14.13384,0,0,1,.32007-3A13.48423,13.48423,0,0,1,29.36,24,13.99443,13.99443,0,0,1,56,30Z" fill="none" stroke="#000" stroke-linecap="round" stroke-linejoin="round" stroke-width="2"/><path d="M33,35V31a1,1,0,0,1,1-1h2a1,1,0,0,1,1,1v4Z" fill="none" stroke="#000" stroke-linecap="round" stroke-linejoin="round" stroke-width="2"/><path d="M40,35V28a1,1,0,0,1,1-1h2a1,1,0,0,1,1,1v7Z" fill="none" stroke="#000" stroke-linecap="round" stroke-linejoin="round" stroke-width="2"/><path d="M47,35V25a1,1,0,0,1,1-1h2a1,1,0,0,1,1,1V35Z" fill="none" stroke="#000" stroke-linecap="round" stroke-linejoin="round" stroke-width="2"/><text x="0" y="75" fill="#000000" font-size="5px" font-weight="bold" font-family="'Helvetica Neue', Helvetica, Arial-Unicode, Arial, Sans-serif">Created by Creaticca Creative Agency</text><text x="0" y="80" fill="#000000" font-size="5px" font-weight="bold" font-family="'Helvetica Neue', Helvetica, Arial-Unicode, Arial, Sans-serif">from the Noun Project</text></svg>