<svg xmlns="http://www.w3.org/2000/svg" viewBox="0 0 73.23 91.53750000000001" x="0px" y="0px"><title>laundry-icons</title><path d="M36.62,73.23A36.62,36.62,0,1,1,73.23,36.62,36.66,36.66,0,0,1,36.62,73.23ZM36.62,5A31.62,31.62,0,1,0,68.23,36.62,31.65,31.65,0,0,0,36.62,5Z"/><path d="M30.93,56.17a2.5,2.5,0,0,1-2.5-2.5V17.06h11a11,11,0,1,1,0,22.06h-6V53.67A2.5,2.5,0,0,1,30.93,56.17Zm2.5-22.06h6a6,6,0,1,0,0-12.06h-6Z"/><text x="0" y="88.23" fill="#000000" font-size="5px" font-weight="bold" font-family="'Helvetica Neue', Helvetica, Arial-Unicode, Arial, Sans-serif">Created by Vicons Design</text><text x="0" y="93.23" fill="#000000" font-size="5px" font-weight="bold" font-family="'Helvetica Neue', Helvetica, Arial-Unicode, Arial, Sans-serif">from the Noun Project</text></svg>