<svg xmlns="http://www.w3.org/2000/svg" xmlns:xlink="http://www.w3.org/1999/xlink" viewBox="0 0 59 72.5" version="1.1" x="0px" y="0px"><title>30 -Natural Park- (outdoor, camping, travel)</title><desc>Created with Sketch.</desc><g stroke="none" stroke-width="1" fill="none" fill-rule="evenodd" stroke-linecap="round"><g transform="translate(-1200.000000, -645.000000)" stroke="#000000" stroke-width="2"><g transform="translate(1201.000000, 646.000000)"><path d="M0,33.9999 C0,41.1799 5.82,46.9999 13,46.9999 C20.18,46.9999 26,41.1799 26,33.9999 C26,26.8199 20.18,20.9999 13,20.9999 C5.82,20.9999 0,26.8199 0,33.9999 L0,33.9999 Z" stroke-linejoin="round"/><path d="M16,38.9999 L13,41.9999" stroke-linejoin="round"/><path d="M10,38.9999 L13,41.9999" stroke-linejoin="round"/><path d="M13,41.9999 L13,55.9999" stroke-linejoin="round"/><path d="M52.375,14.2499 C53.819,14.2499 55,15.5439 55,17.1249 C55,18.7059 53.819,19.9999 52.375,19.9999 L41.125,19.9999 L40.75,19.9999 C38.679,19.9999 37,18.1609 37,15.8929 C37,13.6249 38.679,11.7859 40.75,11.7859 C40.75,11.7859 42.484,8.4999 46.75,8.4999 C49.422,8.4999 52,9.9889 52,14.2499 L52.375,14.2499 L52.375,14.2499 Z" stroke-linejoin="round"/><path d="M9,54.9999 L9,55.9999"/><path d="M5,54.9999 L5,55.9999"/><path d="M1,54.9999 L1,55.9999"/><path d="M25,54.9999 L25,55.9999"/><path d="M21,54.9999 L21,55.9999"/><path d="M17,54.9999 L17,55.9999"/><path d="M57,54.9999 L57,55.9999"/><path d="M53,54.9999 L53,55.9999"/><path d="M29,54.9999 L29,55.9999"/><path d="M39,54.9999 L39,55.9999"/><path d="M43,54.9999 L43,55.9999"/><path d="M34,55.9999 L34,50.9999" stroke-linejoin="round"/><path d="M48,55.9999 L48,50.9999" stroke-linejoin="round"/><path d="M34,45.9999 L34,41.9999" stroke-linejoin="round"/><path d="M48,45.9999 L48,41.9999" stroke-linejoin="round"/><path d="M34,41.9999 L34,35.9999" stroke-linejoin="round"/><path d="M48,41.9999 L48,35.9999" stroke-linejoin="round"/><path d="M52,50.9999 L30,50.9999 L30,49.1569 C30,47.4129 31.413,45.9999 33.157,45.9999 L48.843,45.9999 C50.587,45.9999 52,47.4129 52,49.1569 L52,50.9999 L52,50.9999 Z" stroke-linejoin="round"/><path d="M31,41.9999 L51,41.9999" stroke-linejoin="round"/><path d="M31,37.9999 L51,37.9999" stroke-linejoin="round"/><path d="M21,5.9999 C21,2.6839 23.684,-0.0001 27,-0.0001"/><path d="M21,5.9999 C21,3.2359 18.764,0.9999 16,0.9999"/></g></g></g><text x="0" y="73" fill="#000000" font-size="5px" font-weight="bold" font-family="'Helvetica Neue', Helvetica, Arial-Unicode, Arial, Sans-serif">Created by Ben Davis</text><text x="0" y="78" fill="#000000" font-size="5px" font-weight="bold" font-family="'Helvetica Neue', Helvetica, Arial-Unicode, Arial, Sans-serif">from the Noun Project</text></svg>