<svg xmlns="http://www.w3.org/2000/svg" data-name="Layer 1" viewBox="0 0 100 125" x="0px" y="0px"><title>Artboard 47</title><path d="M95.22,17H87.76V9.52A2.5,2.5,0,0,0,85.26,7H69.7A28.94,28.94,0,0,0,50,14.77,28.94,28.94,0,0,0,30.3,7H14.74a2.5,2.5,0,0,0-2.5,2.5V17H4.78A3.78,3.78,0,0,0,1,20.73V80.07a3.78,3.78,0,0,0,3.78,3.78H29.6a14.59,14.59,0,0,1,11.05,4.92l.31.34a12.69,12.69,0,0,0,1.59,1.41l.5.35a12.28,12.28,0,0,0,1.54.88l.23.11.65.28.12,0a10.29,10.29,0,0,0,1.15.36c.22.06.49.13.81.2A12.55,12.55,0,0,0,50,93l.72,0a12.36,12.36,0,0,0,1.68-.21c.38-.07.71-.16.87-.21a10.74,10.74,0,0,0,1.13-.36c.27-.1.53-.21.76-.32l.29-.14a12.08,12.08,0,0,0,1.41-.8c.21-.14.42-.28.63-.44a12.43,12.43,0,0,0,1.44-1.27l.37-.39a14.88,14.88,0,0,1,11.09-5H95.22A3.78,3.78,0,0,0,99,80.07V20.73A3.78,3.78,0,0,0,95.22,17ZM69.7,12H82.76V67.56H69.7a28.94,28.94,0,0,0-17.2,5.68V19.36s0,0,0,0A23.93,23.93,0,0,1,69.7,12ZM17.24,12H30.3a23.93,23.93,0,0,1,17.2,7.31V73.24a28.94,28.94,0,0,0-17.2-5.68H17.24ZM94,78.85H70.4a19.89,19.89,0,0,0-14.82,6.64l-.21.22a7.48,7.48,0,0,1-.88.77l-.37.25a7.27,7.27,0,0,1-.87.5l-.2.1-.41.17a6.84,6.84,0,0,1-.69.21c-.13,0-.3.08-.52.13a7.51,7.51,0,0,1-1.05.13,6.79,6.79,0,0,1-1.86-.14L48,87.71a6.6,6.6,0,0,1-.73-.23l-.37-.16-.16-.08a7.46,7.46,0,0,1-.94-.54l-.28-.2a7.53,7.53,0,0,1-1-.85l-.08-.08-.09-.09A19.59,19.59,0,0,0,29.6,78.85H6V22h6.24v48.1a2.5,2.5,0,0,0,2.5,2.5H30.3a23.93,23.93,0,0,1,17.83,8,2.5,2.5,0,0,0,3.73,0,23.93,23.93,0,0,1,17.83-8H85.26a2.5,2.5,0,0,0,2.5-2.5V22H94Z"/><path d="M58.53,38.1a2.5,2.5,0,0,0,2.43.12,24.1,24.1,0,0,1,2.35-1,23.85,23.85,0,0,1,8.23-1.46h4.15a2.5,2.5,0,0,0,2.5-2.5V22.19a2.5,2.5,0,0,0-2.5-2.5H71.54a28.88,28.88,0,0,0-12.79,3,2.5,2.5,0,0,0-1.4,2.24V36A2.5,2.5,0,0,0,58.53,38.1Zm3.82-11.58,1-.37a23.84,23.84,0,0,1,8.23-1.46h1.65v6.06H71.54a28.84,28.84,0,0,0-9.19,1.5Z"/><path d="M75.69,41.81H71.54a28.87,28.87,0,0,0-12.8,3A2.5,2.5,0,1,0,61,49.28a24.09,24.09,0,0,1,2.35-1,23.84,23.84,0,0,1,8.23-1.46h4.15a2.5,2.5,0,0,0,0-5Z"/><path d="M75.69,52.88H71.54a28.84,28.84,0,0,0-10,1.77,29.28,29.28,0,0,0-2.84,1.22A2.5,2.5,0,1,0,61,60.35a24.1,24.1,0,0,1,2.35-1,23.84,23.84,0,0,1,8.23-1.46h4.15a2.5,2.5,0,0,0,0-5Z"/><path d="M24.45,24.69H28.6a23.94,23.94,0,0,1,10.58,2.47,2.5,2.5,0,0,0,2.21-4.49,29.26,29.26,0,0,0-2.84-1.22,28.8,28.8,0,0,0-10-1.77H24.45a2.5,2.5,0,0,0,0,5Z"/><path d="M24.45,46.81H28.6a23.94,23.94,0,0,1,10.58,2.47A2.5,2.5,0,0,0,42.79,47V36a2.5,2.5,0,0,0-1.39-2.24,29.51,29.51,0,0,0-2.84-1.22,28.85,28.85,0,0,0-10-1.77H24.45a2.5,2.5,0,0,0-2.5,2.5V44.31A2.5,2.5,0,0,0,24.45,46.81ZM27,35.75H28.6a23.85,23.85,0,0,1,8.23,1.46l1,.38v5.72a28.8,28.8,0,0,0-9.19-1.5H27Z"/><path d="M39.18,60.35a2.5,2.5,0,0,0,2.21-4.48,29.51,29.51,0,0,0-2.84-1.22,28.84,28.84,0,0,0-10-1.77H24.45a2.5,2.5,0,1,0,0,5H28.6a23.84,23.84,0,0,1,8.23,1.46A24.12,24.12,0,0,1,39.18,60.35Z"/><text x="0" y="115" fill="#000000" font-size="5px" font-weight="bold" font-family="'Helvetica Neue', Helvetica, Arial-Unicode, Arial, Sans-serif">Created by Gregor Cresnar</text><text x="0" y="120" fill="#000000" font-size="5px" font-weight="bold" font-family="'Helvetica Neue', Helvetica, Arial-Unicode, Arial, Sans-serif">from the Noun Project</text></svg>