<svg xmlns:dc="http://purl.org/dc/elements/1.1/" xmlns:cc="http://creativecommons.org/ns#" xmlns:rdf="http://www.w3.org/1999/02/22-rdf-syntax-ns#" xmlns:svg="http://www.w3.org/2000/svg" xmlns="http://www.w3.org/2000/svg" xmlns:sodipodi="http://sodipodi.sourceforge.net/DTD/sodipodi-0.dtd" xmlns:inkscape="http://www.inkscape.org/namespaces/inkscape" viewBox="0 0 32 40.00000125" version="1.1" x="0px" y="0px"><g transform="translate(0,-1020.3622)"><g transform="translate(0,1.7382813e-5)" style="" stroke="#000000"><g transform="translate(1.9865548,-161.55442)"><g transform="translate(83.013445,129.55438)"><g transform="translate(-64.000001,32.000054)"><path style="color:#000000;font-style:normal;font-variant:normal;font-weight:normal;font-stretch:normal;font-size:medium;line-height:normal;font-family:sans-serif;text-indent:0;text-align:start;text-decoration:none;text-decoration-line:none;text-decoration-style:solid;text-decoration-color:#000000;letter-spacing:normal;word-spacing:normal;text-transform:none;direction:ltr;block-progression:tb;writing-mode:lr-tb;baseline-shift:baseline;text-anchor:start;white-space:normal;clip-rule:nonzero;display:inline;overflow:visible;visibility:visible;opacity:1;isolation:auto;mix-blend-mode:normal;color-interpolation:sRGB;color-interpolation-filters:linearRGB;solid-color:#000000;solid-opacity:1;fill:#000000;fill-opacity:1;fill-rule:nonzero;stroke:none;stroke-width:1;stroke-linecap:square;stroke-linejoin:round;stroke-miterlimit:4;stroke-dasharray:none;stroke-dashoffset:0;stroke-opacity:1;color-rendering:auto;image-rendering:auto;shape-rendering:auto;text-rendering:auto;enable-background:accumulate" d="m -20.499999,1028.3622 c -0.276131,0 -0.499972,0.2238 -0.5,0.5 l 0,2.5 0,1 0,2 0,1 0,3 0,1 0,2 0,1 0,2.5 c 2.8e-5,0.2761 0.223869,0.4999 0.5,0.5 l 31,0 c 0.276131,-10e-5 0.499972,-0.2239 0.5,-0.5 l 0,-16 c -2.8e-5,-0.2762 -0.223869,-0.5 -0.5,-0.5 z m 0.5,1 14.5000004,0 0,3.5488 c -1.966169,0.2497 -3.499998,1.9191 -3.5,3.9512 2e-6,2.0321 1.533865,3.6995 3.5,3.9492 l 0,3.5508 -14.5000004,0 0,-2 5.5,0 c 0.276131,-10e-5 0.499972,-0.2239 0.5,-0.5 l 0,-2.5664 c 0.691928,-0.1425 1.305308,-0.5589 1.666016,-1.1836 0.446181,-0.7728 0.446181,-1.7272 0,-2.5 -0.360675,-0.6247 -0.974168,-1.0412 -1.666016,-1.1836 l 0,-2.5664 c -2.8e-5,-0.2762 -0.223869,-0.5 -0.5,-0.5 l -5.5,0 z m 15.5000004,0 14.4999996,0 0,2 -5.4999996,0 c -0.276131,0 -0.499972,0.2238 -0.5,0.5 l 0,2.5664 c -0.691848,0.1424 -1.305342,0.5589 -1.666016,1.1836 -0.44618,0.7728 -0.44618,1.7272 0,2.5 0.360707,0.6247 0.974088,1.0411 1.666016,1.1836 l 0,2.5664 c 2.8e-5,0.2761 0.223869,0.4999 0.5,0.5 l 5.4999996,0 0,2 -14.4999996,0 0,-3.5508 c 1.966135,-0.2497 3.499998,-1.9171 3.5,-3.9492 -2e-6,-2.0321 -1.533831,-3.7015 -3.5,-3.9512 z m -15.5000004,3 5,0 0,2.5 0,2 0,2 0,2.5 -5,0 0,-2 2.5,0 c 0.276131,-10e-5 0.499972,-0.2239 0.5,-0.5 l 0,-4 c -2.8e-5,-0.2762 -0.223869,-0.5 -0.5,-0.5 l -2.5,0 z m 25.0000004,0 4.9999996,0 0,2 -2.4999996,0 c -0.276131,0 -0.499972,0.2238 -0.5,0.5 l 0,4 c 2.8e-5,0.2761 0.223869,0.4999 0.5,0.5 l 2.4999996,0 0,2 -4.9999996,0 0,-2.5 0,-2 z m -10.5,1.5507 0,5.8985 c -1.421236,-0.2379 -2.499999,-1.458 -2.5,-2.9492 10e-7,-1.4911 1.078843,-2.7113 2.5,-2.9493 z m 1,0 c 1.421157,0.238 2.499999,1.4582 2.5,2.9493 -10e-7,1.4912 -1.078764,2.7113 -2.5,2.9492 z m -15.5000004,1.4493 2,0 0,3 -2,0 z m 28.0000004,0 1.9999996,0 0,3 -1.9999996,0 z m -22.0000004,0.289 c 0.293122,0.1254 0.633813,0.1752 0.798828,0.461 0.26835,0.4648 0.26835,1.0352 0,1.5 -0.165015,0.2858 -0.505706,0.3354 -0.798828,0.4609 l 0,-1.2109 z m 18.0000004,0 0,1.211 0,1.2109 c -0.293122,-0.1255 -0.633813,-0.1751 -0.798828,-0.4609 -0.26835,-0.4648 -0.26835,-1.0352 0,-1.5 0.165015,-0.2858 0.505706,-0.3356 0.798828,-0.461 z"/></g></g></g></g></g><text x="0" y="47.000001" fill="#000000" font-size="5px" font-weight="bold" font-family="'Helvetica Neue', Helvetica, Arial-Unicode, Arial, Sans-serif">Created by Chameleon Design</text><text x="0" y="52.000001" fill="#000000" font-size="5px" font-weight="bold" font-family="'Helvetica Neue', Helvetica, Arial-Unicode, Arial, Sans-serif">from the Noun Project</text></svg>