<svg xmlns="http://www.w3.org/2000/svg" xmlns:xlink="http://www.w3.org/1999/xlink" version="1.1" x="0px" y="0px" viewBox="0 0 100 125" enable-background="new 0 0 100 100" xml:space="preserve"><g><path fill="none" d="M55.687,76.25c-0.003,0-0.005,0-0.008,0c-2.063,0.005-3.741,1.685-3.741,3.75c0,2.067,1.68,3.748,3.746,3.75   c0.001,0,0.003,0,0.004,0h0.008c2.064-0.004,3.743-1.684,3.743-3.75c0-2.066-1.679-3.746-3.744-3.75   C55.692,76.25,55.689,76.25,55.687,76.25z"/><path fill="none" d="M18.393,53.862l43.523,3.518l0.973-3.631h-8.806c-1.036,0-1.875-0.839-1.875-1.875   c0-1.035,0.84-1.875,1.875-1.875h9.811l1.005-3.75H44.842c-1.035,0-1.875-0.839-1.875-1.875c0-1.035,0.84-1.875,1.875-1.875h21.061   l1.005-3.75H14.343L18.393,53.862z M37.53,42.5h1.125c1.036,0,1.875,0.839,1.875,1.875c0,1.036-0.839,1.875-1.875,1.875H37.53   c-1.035,0-1.875-0.839-1.875-1.875C35.655,43.339,36.495,42.5,37.53,42.5z"/><path fill="none" d="M25.564,76.25c-0.002,0-0.005,0-0.008,0c-2.065,0.004-3.743,1.684-3.743,3.75c0,2.067,1.68,3.748,3.746,3.75   c0.001,0,0.002,0,0.003,0h0.008c2.064-0.004,3.743-1.684,3.743-3.75c0-2.065-1.677-3.745-3.74-3.75   C25.57,76.25,25.567,76.25,25.564,76.25z"/><polygon fill="none" points="71.362,31.25 71.355,31.249 9.319,31.249 10.324,34.999 70.927,34.999 71.932,31.249 71.373,31.249     "/><path fill="none" d="M89.376,16.25h-7.5c-1.034,0-1.875,0.841-1.875,1.875C80,19.159,80.841,20,81.875,20h7.5   c1.034,0,1.875-0.841,1.875-1.875C91.25,17.091,90.409,16.25,89.376,16.25z"/><path d="M89.376,12.5h-7.5c-2.485,0-4.598,1.621-5.34,3.86c-3.313,0.499-4.323,2.591-4.819,4.444l-1.794,6.695H6.875   c-0.583,0-1.133,0.271-1.488,0.734c-0.355,0.462-0.474,1.064-0.324,1.627l2.01,7.5c0.22,0.82,0.962,1.39,1.811,1.39h1.576   l4.652,17.361c0.004,0.016,0.01,0.031,0.015,0.047c0.009,0.028,0.017,0.056,0.026,0.084c0.011,0.031,0.023,0.061,0.035,0.09   c0.009,0.021,0.017,0.043,0.026,0.064c0.048,0.106,0.104,0.205,0.169,0.299c0.003,0.004,0.007,0.009,0.01,0.013   c0.029,0.042,0.06,0.082,0.093,0.121c0.009,0.011,0.018,0.02,0.027,0.031c0.028,0.032,0.057,0.063,0.087,0.093   c0.012,0.012,0.025,0.025,0.038,0.037c0.028,0.026,0.056,0.051,0.086,0.075c0.015,0.013,0.031,0.026,0.046,0.038   c0.029,0.023,0.059,0.044,0.089,0.064c0.017,0.012,0.033,0.024,0.05,0.035c0.045,0.028,0.09,0.055,0.137,0.08   c0.02,0.011,0.042,0.02,0.063,0.03c0.03,0.015,0.06,0.029,0.091,0.042c0.022,0.009,0.045,0.018,0.068,0.026   c0.032,0.012,0.065,0.023,0.098,0.034c0.02,0.006,0.041,0.013,0.062,0.018c0.042,0.011,0.084,0.021,0.126,0.03   c0.013,0.003,0.026,0.006,0.039,0.008c0.062,0.011,0.125,0.02,0.189,0.024l44.146,3.569L59.874,65H19.938   c-1.035,0-1.875,0.839-1.875,1.875c0,1.036,0.84,1.875,1.875,1.875h5.191l-1.044,3.897c-3.43,0.689-6.022,3.724-6.022,7.353   c0,4.135,3.365,7.5,7.5,7.5c0.005,0,0.01,0,0.014,0h9.36c1.036,0,1.875-0.839,1.875-1.875c0-1.036-0.839-1.875-1.875-1.875h-2.884   c0.64-1.104,1.009-2.384,1.009-3.75c0-3.318-2.166-6.137-5.158-7.124l1.106-4.126H52.24l1.106,4.126   c-2.991,0.986-5.157,3.806-5.157,7.123c0,4.135,3.364,7.5,7.5,7.5c0.005,0,0.01,0,0.014,0h18.736c1.036,0,1.875-0.839,1.875-1.875   c0-1.036-0.839-1.875-1.875-1.875H62.179c0.64-1.104,1.009-2.384,1.009-3.75c0-3.63-2.592-6.665-6.022-7.353l-1.044-3.897h5.185   c0.002,0,0.004,0.001,0.007,0.001c0.06,0,0.12-0.004,0.179-0.01c0.014-0.001,0.028-0.004,0.042-0.005   c0.043-0.005,0.085-0.011,0.127-0.019c0.021-0.004,0.042-0.008,0.063-0.013c0.033-0.008,0.066-0.016,0.099-0.026   c0.024-0.007,0.048-0.013,0.071-0.021c0.03-0.01,0.058-0.021,0.088-0.032c0.024-0.009,0.048-0.017,0.072-0.028   c0.047-0.02,0.093-0.043,0.138-0.066c0.024-0.013,0.046-0.027,0.07-0.041c0.025-0.015,0.051-0.029,0.075-0.046   c0.022-0.014,0.043-0.029,0.063-0.044c0.026-0.018,0.05-0.037,0.075-0.056c0.019-0.015,0.037-0.03,0.055-0.045   c0.027-0.023,0.052-0.046,0.077-0.07c0.015-0.014,0.03-0.028,0.044-0.043c0.029-0.03,0.058-0.062,0.085-0.094   c0.009-0.01,0.018-0.02,0.027-0.03c0.036-0.044,0.07-0.088,0.101-0.135c0.007-0.011,0.014-0.022,0.021-0.033   c0.023-0.035,0.045-0.071,0.066-0.108c0.013-0.023,0.024-0.046,0.036-0.07c0.013-0.026,0.026-0.051,0.037-0.078   c0.013-0.029,0.024-0.058,0.036-0.087c0.008-0.022,0.017-0.045,0.025-0.067c0.011-0.032,0.021-0.065,0.031-0.098   c0.002-0.009,0.006-0.017,0.008-0.025l2.001-7.467c0.003-0.009,0.005-0.019,0.008-0.028L70.79,38.75h1.576   c0.849,0,1.591-0.57,1.811-1.39l2.01-7.5c0.151-0.563,0.031-1.164-0.324-1.627c-0.355-0.463-0.905-0.734-1.488-0.734h-0.571   l1.534-5.725c0.22-0.822,0.369-1.378,1.289-1.627c0.814,2.105,2.858,3.603,5.247,3.603h7.5c3.102,0,5.625-2.523,5.625-5.625   C95,15.023,92.477,12.5,89.376,12.5z M29.313,80c0,2.066-1.678,3.746-3.743,3.75h-0.008c-0.001,0-0.002,0-0.003,0   c-2.066-0.002-3.746-1.683-3.746-3.75c0-2.066,1.679-3.746,3.743-3.75c0.003,0,0.005,0,0.008,0c0.003,0,0.006,0,0.009,0   C27.636,76.255,29.313,77.935,29.313,80z M59.438,80c0,2.066-1.678,3.746-3.743,3.75h-0.008c-0.001,0-0.002,0-0.004,0   c-2.066-0.002-3.746-1.683-3.746-3.75c0-2.065,1.677-3.745,3.741-3.75c0.002,0,0.005,0,0.008,0c0.003,0,0.005,0,0.008,0   C57.76,76.253,59.438,77.934,59.438,80z M65.903,42.5H44.842c-1.035,0-1.875,0.839-1.875,1.875c0,1.036,0.84,1.875,1.875,1.875   h20.056L63.893,50h-9.811c-1.035,0-1.875,0.839-1.875,1.875c0,1.036,0.839,1.875,1.875,1.875h8.806l-0.973,3.631l-43.523-3.518   l-4.05-15.113h52.565L65.903,42.5z M70.927,34.999H10.324l-1.005-3.75h62.036c0.002,0,0.004,0,0.007,0c0.004,0,0.007,0,0.011,0   h0.559L70.927,34.999z M89.376,20h-7.5C80.841,20,80,19.159,80,18.125c0-1.034,0.841-1.875,1.875-1.875h7.5   c1.034,0,1.875,0.841,1.875,1.875C91.25,19.159,90.409,20,89.376,20z"/><path d="M37.53,46.25h1.125c1.036,0,1.875-0.839,1.875-1.875c0-1.035-0.839-1.875-1.875-1.875H37.53   c-1.035,0-1.875,0.839-1.875,1.875C35.655,45.41,36.495,46.25,37.53,46.25z"/></g><text x="0" y="115" fill="#000000" font-size="5px" font-weight="bold" font-family="'Helvetica Neue', Helvetica, Arial-Unicode, Arial, Sans-serif">Created by Valeriy</text><text x="0" y="120" fill="#000000" font-size="5px" font-weight="bold" font-family="'Helvetica Neue', Helvetica, Arial-Unicode, Arial, Sans-serif">from the Noun Project</text></svg>