<svg xmlns="http://www.w3.org/2000/svg" xmlns:xlink="http://www.w3.org/1999/xlink" version="1.1" x="0px" y="0px" viewBox="0 0 100 125" enable-background="new 0 0 100 100" xml:space="preserve"><path d="M76.63,45.716c-1.408,0-2.55,1.141-2.55,2.551v41.667H61.905L61.9,63.384H36.961l-0.007,26.551H24.779V48.267  c0-1.41-1.143-2.551-2.55-2.551c-1.408,0-2.551,1.141-2.551,2.551v44.217c0,1.408,1.143,2.551,2.551,2.551h17.274  c1.408,0,2.55-1.143,2.55-2.551V68.608h14.751v23.876c0,1.408,1.143,2.551,2.55,2.551H76.63c1.408,0,2.55-1.143,2.55-2.551V48.267  C79.18,46.859,78.041,45.716,76.63,45.716z M91.083,45.464L51.301,5.682c-0.958-0.957-2.65-0.957-3.605,0L8.916,44.464  c-0.996,0.996-0.996,2.61,0,3.606c0.498,0.498,1.151,0.747,1.804,0.747c0.653,0,1.306-0.249,1.804-0.747L49.5,11.092l37.979,37.979  c0.996,0.996,2.61,0.996,3.606,0S92.079,46.46,91.083,45.464z M61.9,49.572H36.961v5.062H61.9V49.572z"/><text x="0" y="115" fill="#000000" font-size="5px" font-weight="bold" font-family="'Helvetica Neue', Helvetica, Arial-Unicode, Arial, Sans-serif">Created by Pundimon</text><text x="0" y="120" fill="#000000" font-size="5px" font-weight="bold" font-family="'Helvetica Neue', Helvetica, Arial-Unicode, Arial, Sans-serif">from the Noun Project</text></svg>